# File produced by Open Asset Import Library (http://www.assimp.sf.net)
# (assimp v5.2.0)

mtllib Mesh009.mtl

# 64 vertex positions
v -3.36240196 -0.0965510011 0.776588976
v -3.36240196 1.816082 0.776588976
v -3.34055209 1.816082 0.778741002
v -3.34055209 -0.0965510011 0.778741002
v -3.38425207 -0.0965510011 0.778741002
v -3.31954193 1.816082 0.78511399
v -3.31954193 -0.0965510011 0.78511399
v -3.300179 1.816082 0.795463979
v -3.300179 -0.0965510011 0.795463979
v -3.28320599 1.816082 0.809392989
v -3.28320599 -0.0965510011 0.809392989
v -3.26927805 1.816082 0.826364994
v -3.26927805 -0.0965510011 0.826364994
v -3.25892806 1.816082 0.84572798
v -3.25892806 -0.0965510011 0.84572798
v -3.25255394 1.816082 0.866738975
v -3.25255394 -0.0965510011 0.866738975
v -3.25040197 1.816082 0.888589025
v -3.25040197 -0.0965510011 0.888589025
v -3.25255394 1.816082 0.910439014
v -3.25255394 -0.0965510011 0.910439014
v -3.25892806 1.816082 0.931448996
v -3.25892806 -0.0965510011 0.931448996
v -3.26927805 1.816082 0.950812995
v -3.26927805 -0.0965510011 0.950812995
v -3.28320599 1.816082 0.967785001
v -3.28320599 -0.0965510011 0.967785001
v -3.300179 1.816082 0.981712997
v -3.300179 -0.0965510011 0.981712997
v -3.31954193 1.816082 0.992062986
v -3.31954193 -0.0965510011 0.992062986
v -3.34055209 1.816082 0.998436987
v -3.34055209 -0.0965510011 0.998436987
v -3.36240196 1.816082 1.00058901
v -3.36240196 -0.0965510011 1.00058901
v -3.38425303 1.816082 0.998436987
v -3.38425303 -0.0965510011 0.998436987
v -3.40526295 1.816082 0.992062986
v -3.40526295 -0.0965510011 0.992062986
v -3.42462611 1.816082 0.981712997
v -3.42462611 -0.0965510011 0.981712997
v -3.44159794 1.816082 0.967785001
v -3.44159794 -0.0965510011 0.967785001
v -3.45552707 1.816082 0.950812995
v -3.45552707 -0.0965510011 0.950812995
v -3.46587706 1.816082 0.931448996
v -3.46587706 -0.0965510011 0.931448996
v -3.47224998 1.816082 0.910439014
v -3.47224998 -0.0965510011 0.910439014
v -3.47440195 1.816082 0.888589025
v -3.47440195 -0.0965510011 0.888589025
v -3.47224998 1.816082 0.866738975
v -3.47224998 -0.0965510011 0.866738975
v -3.46587706 1.816082 0.84572798
v -3.46587706 -0.0965510011 0.84572798
v -3.45552707 1.816082 0.826364994
v -3.45552707 -0.0965510011 0.826364994
v -3.44159794 1.816082 0.809392989
v -3.44159794 -0.0965510011 0.809392989
v -3.42462611 1.816082 0.795463979
v -3.42462611 -0.0965510011 0.795463979
v -3.40526295 1.816082 0.78511399
v -3.40526295 -0.0965510011 0.78511399
v -3.38425207 1.816082 0.778741002

# 0 UV coordinates

# 32 vertex normals
vn 0 0 -1
vn 0.195096806 0 -0.980783939
vn -0.195096806 0 -0.980783939
vn 0.38269031 0 -0.923876643
vn 0.555622995 0 -0.831434369
vn 0.707106829 0 -0.707106829
vn 0.831434369 0 -0.555622995
vn 0.923876643 0 -0.38269031
vn 0.980783939 0 -0.195096806
vn 1 0 0
vn 0.980783939 0 0.195096806
vn 0.923876643 0 0.38269031
vn 0.831434369 0 0.555622995
vn 0.707106829 0 0.707106829
vn 0.555622995 0 0.831434369
vn 0.38269031 0 0.923876643
vn 0.195096806 0 0.980783939
vn 0 0 1
vn -0.195096806 0 0.980783939
vn -0.38269031 0 0.923876643
vn -0.555622995 0 0.831434369
vn -0.707106829 0 0.707106829
vn -0.831434369 0 0.555622995
vn -0.923876643 0 0.38269031
vn -0.980783939 0 0.195096806
vn -1 0 0
vn -0.980783939 0 -0.195096806
vn -0.923876643 0 -0.38269031
vn -0.831434369 0 -0.555622995
vn -0.707106829 0 -0.707106829
vn -0.555622995 0 -0.831434369
vn -0.38269031 0 -0.923876643

# Mesh '' with 64 faces
usemtl $Material_0
f  1//1 2//1 3//2
f  1//1 3//2 4//2
f  5//3 2//1 1//1
f  4//2 3//2 6//4
f  4//2 6//4 7//4
f  7//4 6//4 8//5
f  7//4 8//5 9//5
f  9//5 8//5 10//6
f  9//5 10//6 11//6
f  11//6 10//6 12//7
f  11//6 12//7 13//7
f  13//7 12//7 14//8
f  13//7 14//8 15//8
f  15//8 14//8 16//9
f  15//8 16//9 17//9
f  17//9 16//9 18//10
f  17//9 18//10 19//10
f  19//10 18//10 20//11
f  19//10 20//11 21//11
f  21//11 20//11 22//12
f  21//11 22//12 23//12
f  23//12 22//12 24//13
f  23//12 24//13 25//13
f  25//13 24//13 26//14
f  25//13 26//14 27//14
f  27//14 26//14 28//15
f  27//14 28//15 29//15
f  29//15 28//15 30//16
f  29//15 30//16 31//16
f  31//16 30//16 32//17
f  31//16 32//17 33//17
f  33//17 32//17 34//18
f  33//17 34//18 35//18
f  35//18 34//18 36//19
f  35//18 36//19 37//19
f  37//19 36//19 38//20
f  37//19 38//20 39//20
f  39//20 38//20 40//21
f  39//20 40//21 41//21
f  41//21 40//21 42//22
f  41//21 42//22 43//22
f  43//22 42//22 44//23
f  43//22 44//23 45//23
f  45//23 44//23 46//24
f  45//23 46//24 47//24
f  47//24 46//24 48//25
f  47//24 48//25 49//25
f  49//25 48//25 50//26
f  49//25 50//26 51//26
f  51//26 50//26 52//27
f  51//26 52//27 53//27
f  53//27 52//27 54//28
f  53//27 54//28 55//28
f  55//28 54//28 56//29
f  55//28 56//29 57//29
f  57//29 56//29 58//30
f  57//29 58//30 59//30
f  59//30 58//30 60//31
f  59//30 60//31 61//31
f  61//31 60//31 62//32
f  61//31 62//32 63//32
f  63//32 62//32 64//3
f  63//32 64//3 5//3
f  5//3 64//3 2//1

